<svg fill="none" height="24" viewBox="0 0 24 24" width="24" xmlns="http://www.w3.org/2000/svg"><g clip-rule="evenodd" fill="#111" fill-rule="evenodd"><path d="m11.905 5.16372c-.6077.46677-1.3802 1.25295-2.48694 2.38304-.58846.60088-1.11624 1.03807-1.75861 1.30362-.64054.26481-1.32164.32838-2.1535.32838-.71767 0-1.19828.00095-1.56442.03898-.3528.03665-.51476.1012-.62217.17449-.29059.19826-.44547.49788-.51839.95957-.0594.3761-.05355.7634-.04697 1.1989.00218.144.00443.2934.00443.4494s-.00225.3053-.00443.4494c-.00658.4355-.01243.8227.04697 1.1988.07292.4617.2278.7614.51839.9596.10741.0733.26937.1379.62217.1745.36614.038.84675.039 1.56442.039.83186 0 1.51296.0636 2.1535.3284.64237.2655 1.17014.7027 1.75861 1.3036 1.10674 1.1301 1.87924 1.9163 2.48694 2.383.6335.4866.8234.4185.8774.3956.0621-.0262.2474-.1287.3589-.934.1068-.7712.1086-1.8871.1086-3.4844v-5.62706c0-1.59725-.0018-2.71318-.1086-3.48439-.1115-.80526-.2968-.90775-.3589-.93402-.054-.02286-.2439-.09098-.8774.39559zm-.9137-1.18959c.6869-.52759 1.5042-.95602 2.3754-.58751.8633.3651 1.1406 1.24458 1.2605 2.10977.1228.88673.1227 2.10772.1227 3.6258v5.75581c0 1.518.0001 2.739-.1227 3.6258-.1199.8651-.3972 1.7446-1.2604 2.1097-.8713.3685-1.6886-.0599-2.3755-.5875-.7024-.5395-1.54888-1.4039-2.59883-2.476l-.04608-.0471c-.53946-.5508-.89742-.817-1.26001-.9669-.36441-.1507-.80748-.2146-1.58043-.2146h-.03902c-.6685 0-1.22755 0-1.68038-.047-.47495-.0494-.91591-.1568-1.31258-.4274-.75581-.5157-1.04505-1.2707-1.15464-1.9647-.08172-.5175-.07234-1.0856-.06479-1.5433.00201-.1218.00389-.2358.00389-.3389s-.00188-.2171-.00389-.339c-.00755-.4576-.01693-1.0258.06479-1.5432.10959-.694.39883-1.44908 1.15463-1.96475.39668-.27064.83764-.37805 1.31259-.42738.45283-.04704 1.01188-.04703 1.68039-.04701h.03901c.77295 0 1.21602-.06394 1.58043-.21459.36259-.1499.72055-.4161 1.26001-.96694l.04608-.04705c1.04995-1.07214 1.89643-1.93653 2.59883-2.47605z"/><path d="m16.545 8.40381c.3293-.25125.7999-.18798 1.0512.14133.7239.94886 1.1537 2.15206 1.1537 3.45496 0 1.3028-.4298 2.5061-1.1537 3.4549-.2513.3293-.7219.3926-1.0512.1413-.3293-.2512-.3926-.7219-.1414-1.0512.5269-.6905.8463-1.5748.8463-2.545 0-.9703-.3194-1.8546-.8463-2.54508-.2512-.32931-.1879-.79995.1414-1.05121z"/><path d="m19.4934 6.44691c.3055-.27971.78-.25881 1.0597.0467 1.3651 1.49097 2.1968 3.40725 2.1968 5.50649 0 2.0992-.8317 4.0155-2.1968 5.5064-.2797.3055-.7542.3265-1.0597.0467-.3055-.2797-.3264-.7541-.0467-1.0596 1.1365-1.2413 1.8032-2.8042 1.8032-4.4935s-.6667-3.25227-1.8032-4.49356c-.2797-.3055-.2588-.77992.0467-1.05963z"/></g></svg>